<?xml version="1.0" standalone="no"?>
<!DOCTYPE svg PUBLIC "-//W3C//DTD SVG 20010904//EN"
 "http://www.w3.org/TR/2001/REC-SVG-20010904/DTD/svg10.dtd">
<svg version="1.0" xmlns="http://www.w3.org/2000/svg"
 width="4096.000000pt" height="4096.000000pt" viewBox="0 0 4096.000000 4096.000000"
 preserveAspectRatio="xMidYMid meet">
<metadata>
Created by potrace 1.16, written by Peter Selinger 2001-2019
</metadata>
<g transform="translate(0.000000,4096.000000) scale(0.100000,-0.100000)"
fill="#000000" stroke="none">
<path d="M20490 32899 c-880 -20 -1574 -106 -2355 -294 -77 -18 -198 -48 -270
-65 -284 -67 -621 -172 -985 -305 -85 -31 -180 -65 -210 -75 -99 -33 -266 -99
-392 -154 -68 -29 -217 -95 -333 -145 -461 -200 -956 -461 -1345 -711 -74 -48
-153 -97 -175 -110 -172 -102 -573 -388 -795 -565 -20 -16 -73 -58 -116 -92
-265 -209 -596 -494 -724 -623 -168 -170 -308 -322 -424 -460 -12 -14 -62 -72
-111 -130 -50 -58 -120 -143 -156 -190 -36 -47 -121 -157 -190 -245 -427 -546
-613 -799 -836 -1135 -122 -183 -353 -554 -353 -566 0 -2 -12 -23 -27 -46 -29
-48 -336 -655 -400 -793 -211 -456 -322 -747 -443 -1165 -12 -41 -28 -95 -36
-120 -36 -116 -54 -220 -54 -308 0 -106 14 -144 76 -206 62 -62 87 -71 199
-70 117 0 206 23 248 62 33 31 71 102 82 152 4 19 18 53 30 75 24 41 55 134
95 285 62 236 161 513 256 721 19 42 39 105 45 140 8 51 21 80 63 144 29 44
72 123 96 175 68 154 331 652 398 758 26 40 72 111 102 159 30 47 74 116 97
152 23 36 63 102 89 146 148 247 606 886 838 1170 490 598 688 817 886 986 41
35 120 104 175 154 190 172 385 328 690 555 379 281 378 280 581 415 324 214
470 300 779 460 269 140 341 175 500 243 77 34 192 84 255 112 202 90 378 159
645 251 143 50 303 106 355 125 106 38 257 84 276 84 7 0 25 5 41 12 32 13
148 43 243 62 36 7 81 18 100 24 19 6 71 18 115 27 344 69 374 75 420 91 22 7
78 18 125 24 46 6 92 15 101 20 9 5 56 14 104 20 49 6 92 13 95 15 4 2 40 9
81 15 41 6 112 17 159 25 84 15 283 37 495 56 148 12 298 27 425 41 134 15
1044 15 1225 0 183 -16 352 -31 480 -42 61 -6 162 -15 225 -20 348 -30 650
-64 700 -79 19 -6 58 -11 86 -11 27 0 84 -8 125 -19 41 -10 102 -21 136 -25
34 -3 88 -12 120 -20 86 -22 147 -35 253 -56 146 -29 509 -124 542 -141 9 -5
45 -15 80 -23 35 -8 95 -25 133 -39 39 -13 108 -37 155 -51 222 -71 629 -224
720 -271 25 -13 61 -30 80 -38 182 -77 232 -97 238 -97 15 0 233 -99 352 -160
69 -35 193 -97 275 -138 172 -85 332 -173 390 -214 65 -47 296 -198 302 -198
3 0 20 -10 37 -23 17 -13 94 -61 171 -107 289 -172 495 -318 725 -515 52 -45
194 -159 315 -255 308 -243 370 -298 626 -557 193 -195 398 -424 502 -561 48
-62 80 -93 117 -109 113 -49 543 -83 623 -50 35 15 37 18 37 61 0 115 -87 252
-349 551 -322 368 -631 686 -811 836 -63 53 -209 178 -325 279 -354 308 -629
511 -1180 872 -376 246 -503 321 -790 466 -99 50 -256 132 -350 183 -333 181
-780 372 -1247 534 -331 115 -581 193 -763 238 -55 14 -199 51 -320 82 -121
32 -260 66 -310 76 -373 77 -724 133 -1010 164 -77 8 -217 24 -310 34 -305 35
-700 57 -1058 60 -130 1 -243 3 -250 5 -6 1 -154 -1 -327 -5z"/>
<path d="M14044 28736 c-61 -28 -108 -82 -131 -151 -20 -58 -22 -205 -3 -275
25 -96 19 -1342 -9 -1910 -6 -118 -14 -369 -17 -556 -7 -310 -6 -346 10 -395
23 -71 79 -145 135 -180 40 -26 54 -29 129 -29 58 0 95 5 119 17 51 24 151
119 175 167 32 62 47 215 49 486 1 135 5 354 8 488 l6 243 295 5 c162 2 401
10 530 16 261 13 560 14 780 1 l144 -8 8 -36 c4 -20 12 -261 17 -535 8 -411
13 -510 26 -558 22 -80 55 -141 104 -197 109 -125 318 -123 450 4 77 75 91
105 91 199 -1 46 -7 133 -16 193 -10 72 -20 304 -29 680 -8 314 -19 662 -25
775 -14 277 -14 845 0 1023 24 308 -27 450 -189 525 -78 36 -203 38 -273 3
-62 -30 -132 -93 -162 -144 -33 -57 -50 -182 -42 -310 22 -379 39 -1100 26
-1109 -3 -2 -313 0 -690 4 -377 4 -765 4 -862 1 l-178 -6 0 24 c0 13 -3 314
-6 669 l-5 645 -25 52 c-38 78 -128 157 -210 183 -89 27 -166 26 -230 -4z"/>
<path d="M17241 28300 c-68 -15 -167 -65 -188 -96 -16 -26 -17 -54 -15 -388 5
-787 23 -1781 32 -1854 22 -165 72 -262 173 -334 38 -27 150 -40 241 -27 53 7
65 13 112 60 29 29 58 64 64 79 9 21 9 147 0 486 -6 253 -15 804 -20 1226 -10
848 -6 800 -74 835 -36 20 -253 28 -325 13z"/>
<path d="M13395 28165 c-27 -8 -53 -14 -56 -15 -17 -1 -91 -85 -113 -129 -43
-85 -48 -152 -45 -631 4 -498 4 -454 -6 -980 -7 -380 -7 -386 15 -469 21 -75
28 -89 79 -141 65 -66 114 -86 196 -77 112 12 213 71 260 152 37 61 44 156 38
455 -3 167 2 480 17 905 12 358 19 677 15 710 -14 127 -78 201 -186 215 -149
19 -165 19 -214 5z"/>
<path d="M31696 27863 c-16 -16 -1966 -27 -4881 -27 l-3020 -1 -55 -23 c-102
-43 -180 -147 -180 -240 0 -79 75 -193 154 -235 51 -26 90 -27 486 -8 398 20
2654 21 4195 2 953 -11 1238 -11 1665 0 283 7 837 13 1230 14 508 2 727 6 757
14 60 16 123 68 155 126 54 99 30 273 -47 333 -51 40 -116 52 -290 52 -89 0
-165 -3 -169 -7z"/>
<path d="M32270 26849 c-802 -31 -947 -32 -4675 -30 -2068 1 -3767 4 -3775 6
-33 10 -1333 23 -1451 15 -141 -9 -183 -24 -247 -88 -27 -28 -42 -55 -56 -106
-18 -65 -18 -70 -2 -122 21 -66 106 -163 172 -195 45 -21 46 -21 292 -9 293
15 -120 15 5002 10 4573 -3 5251 -1 5317 23 81 30 170 103 204 169 24 47 24
60 -2 137 -29 86 -104 163 -179 185 -59 17 -247 19 -600 5z"/>
<path d="M20795 25830 c-153 -9 -231 -56 -283 -168 -29 -63 -25 -106 13 -182
34 -67 129 -167 169 -178 33 -10 175 -1 302 18 149 22 751 32 1529 26 1740
-15 6430 -31 8427 -29 2375 3 2152 -5 2257 76 68 53 111 118 111 169 0 52 -43
155 -83 196 -17 19 -50 43 -72 55 -39 20 -50 20 -400 16 -486 -6 -8527 -4
-10385 2 -817 3 -1530 2 -1585 -1z"/>
<path d="M19575 24840 c-448 -13 -569 -28 -635 -80 -99 -79 -87 -221 31 -345
l52 -55 401 -1 c221 0 604 -5 851 -10 1141 -24 13286 -43 13550 -21 161 13
218 31 286 90 130 114 141 204 38 317 -41 44 -62 58 -108 72 -68 21 34 20
-1501 4 -959 -10 -2242 -10 -6090 -1 -2681 6 -5050 15 -5265 20 -563 14 -1298
18 -1610 10z"/>
<path d="M16259 23391 c-19 -16 -66 -46 -105 -68 l-69 -38 -1460 -3 c-985 -2
-1490 0 -1553 8 -51 6 -142 22 -203 36 -61 14 -113 24 -115 21 -3 -3 19 -79
50 -169 30 -89 60 -198 67 -241 17 -110 6 -308 -31 -576 -17 -124 -28 -230
-26 -238 7 -18 57 -16 84 3 12 8 54 61 92 117 88 130 110 154 163 177 71 31
184 40 608 47 l406 6 6 -54 c3 -30 11 -380 16 -779 6 -399 16 -1080 22 -1515
9 -598 9 -803 0 -845 -16 -78 -61 -150 -150 -244 -83 -85 -111 -129 -111 -169
0 -32 10 -35 105 -25 166 16 843 21 1059 8 165 -10 210 -10 216 0 18 28 -9 82
-77 154 -77 80 -120 138 -161 218 l-27 53 -5 1570 c-4 1209 -8 1578 -18 1605
-6 19 -12 37 -12 39 0 2 55 0 123 -4 67 -4 256 -7 419 -6 163 0 320 -4 348 -9
99 -19 138 -48 288 -217 40 -46 81 -83 91 -83 10 0 26 9 36 20 21 23 21 82 4
347 -7 109 -9 273 -5 450 4 153 8 312 9 353 2 73 1 75 -23 78 -16 2 -38 -8
-61 -27z"/>
<path d="M9979 23367 c-75 -51 -104 -63 -179 -77 -72 -14 -2269 -13 -2643 0
-516 18 -516 18 -538 -9 -38 -47 -27 -73 59 -132 98 -67 182 -153 212 -215 27
-55 27 -28 11 -479 -6 -165 -11 -509 -11 -765 0 -256 -3 -475 -6 -486 -4 -16
-36 -36 -116 -73 -188 -88 -258 -146 -258 -217 0 -42 37 -95 83 -118 21 -10
89 -27 150 -37 62 -11 118 -21 125 -24 9 -3 12 -160 12 -737 0 -702 -1 -735
-20 -775 -29 -65 -70 -120 -154 -206 -54 -56 -77 -88 -82 -113 -12 -64 -6 -67
109 -61 381 21 801 29 1011 19 328 -16 340 -8 205 149 -103 120 -130 159 -165
239 l-29 65 -5 640 c-3 359 -9 648 -14 659 -8 17 -7 18 10 10 11 -5 297 -9
679 -9 499 -1 669 -4 696 -13 40 -14 138 -110 234 -230 62 -78 80 -92 118 -92
l25 0 -14 63 c-18 82 -17 300 1 627 24 435 35 571 50 645 19 91 20 88 -16 114
-38 28 -44 24 -105 -78 -65 -107 -140 -197 -183 -218 -33 -17 -86 -18 -760
-21 l-724 -3 6 63 c3 35 11 122 17 193 7 77 10 267 8 465 l-3 335 965 0 c1025
0 1004 1 1072 -47 15 -10 60 -67 101 -126 149 -215 208 -222 160 -20 -32 134
-19 678 22 973 8 55 15 115 15 133 0 30 -2 32 -34 32 -23 0 -53 -13 -97 -43z"/>
<path d="M26809 23349 c-46 -28 -95 -56 -109 -62 -16 -6 -463 -11 -1290 -13
-1151 -4 -1559 1 -1842 22 l-88 7 0 -25 c0 -25 25 -52 91 -101 94 -68 199
-195 231 -279 19 -50 20 -84 26 -653 3 -330 6 -687 7 -794 l0 -193 -91 -28
c-149 -46 -183 -68 -237 -156 l-26 -42 22 -19 c65 -58 180 -121 252 -138 45
-10 50 -15 57 -46 9 -42 29 -823 31 -1249 2 -375 9 -351 -140 -512 -113 -122
-157 -183 -149 -205 6 -14 23 -15 138 -9 159 9 1950 9 2493 1 215 -4 415 -11
445 -15 53 -9 59 -13 147 -105 103 -109 98 -110 108 25 3 47 15 173 26 280 10
107 26 272 34 365 18 204 39 336 66 428 25 84 23 121 -9 125 -33 5 -85 -31
-194 -134 -114 -108 -161 -132 -277 -145 -47 -5 -476 -9 -953 -9 l-868 0 0
208 c-1 226 -15 634 -26 723 l-6 56 398 9 c220 5 532 9 694 9 289 0 296 0 338
-23 46 -24 106 -80 209 -196 56 -62 64 -68 90 -61 15 3 30 8 32 10 2 2 -7 37
-20 77 -23 70 -24 86 -23 348 0 151 6 407 13 568 8 172 10 297 4 303 -4 4 -19
10 -32 11 -19 2 -32 -9 -68 -62 -62 -90 -140 -169 -190 -191 -71 -33 -235 -42
-613 -35 -190 3 -451 6 -580 6 l-236 0 4 413 c3 252 0 458 -7 531 -6 66 -9
121 -8 122 1 2 20 -2 42 -9 29 -8 281 -11 885 -12 465 -1 863 -5 885 -9 99
-19 215 -112 311 -250 38 -54 80 -83 107 -73 10 4 11 21 6 78 -16 157 -2 709
27 1092 l7 87 -30 0 c-18 0 -62 -20 -114 -51z"/>
<path d="M30195 23320 c-164 -20 -613 -32 -987 -27 l-398 7 0 -24 c0 -31 38
-77 136 -163 148 -131 158 -204 57 -428 -53 -118 -111 -260 -171 -420 -55
-144 -156 -395 -171 -422 -19 -34 -142 -324 -241 -568 -87 -215 -85 -211 -123
-310 -84 -218 -150 -385 -177 -450 -16 -38 -39 -95 -50 -125 -12 -30 -32 -80
-45 -110 -13 -30 -52 -122 -85 -205 -256 -627 -312 -748 -410 -885 -68 -96
-156 -186 -242 -250 -51 -38 -63 -58 -53 -91 6 -19 12 -20 58 -15 101 13 1125
18 1227 7 116 -13 150 -5 150 34 0 35 -38 90 -105 154 -57 53 -85 100 -85 144
0 74 81 315 180 536 l88 196 803 0 804 0 46 -130 c46 -130 73 -197 168 -415
76 -171 71 -224 -28 -340 -70 -81 -83 -104 -79 -142 l3 -33 105 2 c58 1 378 3
712 5 l607 3 12 21 c16 32 -1 56 -81 115 -121 88 -230 226 -311 394 -26 55
-84 201 -129 325 -45 124 -160 423 -256 665 -97 242 -234 589 -306 770 -72
182 -171 427 -220 545 -87 210 -124 301 -303 755 -126 320 -146 383 -152 496
-7 122 7 157 81 200 85 49 89 53 94 115 6 77 3 79 -123 64z m-523 -1665 c92
-220 328 -807 352 -878 32 -95 66 -87 -351 -87 -203 0 -419 -3 -480 -7 -104
-6 -113 -5 -113 11 0 34 82 261 157 436 41 96 104 245 140 330 86 206 185 394
205 388 5 -2 46 -89 90 -193z"/>
<path d="M16634 23295 c-9 -23 9 -39 133 -121 221 -146 245 -196 493 -1014 54
-179 139 -449 188 -600 50 -151 111 -347 137 -435 25 -88 89 -290 142 -450 52
-159 119 -382 148 -495 56 -216 101 -371 192 -660 65 -210 93 -321 93 -376 0
-34 -10 -55 -61 -125 -67 -92 -99 -149 -99 -175 0 -13 6 -15 30 -11 162 33
852 44 1129 18 125 -12 145 -11 158 2 13 13 9 21 -37 72 -63 70 -80 107 -86
194 -6 75 -2 90 84 336 103 293 158 456 202 590 23 72 53 155 67 185 75 163
105 236 142 340 61 174 144 437 191 605 64 228 75 245 119 189 22 -29 46 -97
126 -374 31 -107 87 -274 125 -370 64 -166 116 -321 210 -630 41 -135 113
-345 189 -557 48 -133 75 -259 69 -318 -4 -28 -25 -74 -62 -136 -57 -94 -74
-134 -62 -146 4 -4 55 -1 114 5 200 23 630 34 863 23 302 -15 299 -15 299 10
0 11 -22 45 -49 76 -27 30 -63 83 -81 119 -31 59 -33 69 -27 137 3 40 15 111
27 157 12 47 28 112 36 145 15 57 60 172 88 225 20 37 82 227 96 295 31 151
102 376 180 575 76 193 90 236 145 460 56 225 81 303 199 621 36 97 86 257
111 355 26 98 55 206 65 239 10 33 49 164 85 290 75 257 117 351 202 445 53
58 155 127 246 166 71 30 90 50 82 82 -4 15 -12 30 -18 34 -16 10 -155 10
-449 -2 -233 -9 -371 -7 -845 17 -138 6 -141 5 -128 -65 5 -27 23 -53 67 -97
34 -33 70 -79 80 -102 25 -57 18 -96 -71 -366 -70 -211 -123 -389 -156 -521
-9 -38 -21 -79 -25 -92 -8 -20 -29 -99 -111 -414 -40 -152 -130 -445 -219
-710 -52 -155 -121 -416 -135 -513 -13 -85 -34 -67 -60 50 -21 100 -91 316
-188 583 -47 129 -115 327 -152 440 -108 333 -231 700 -260 775 -88 234 -165
500 -185 639 -10 68 -9 84 5 122 18 47 83 111 140 138 49 24 95 65 95 86 0 38
-51 43 -353 30 -184 -8 -408 -10 -645 -6 -402 8 -393 9 -355 -56 13 -22 46
-48 100 -78 98 -54 126 -79 155 -139 17 -35 22 -62 21 -116 -1 -102 -36 -214
-277 -910 -37 -104 -103 -307 -147 -450 -44 -142 -127 -390 -184 -550 -57
-159 -129 -366 -160 -460 -31 -93 -61 -176 -67 -183 -6 -7 -20 -12 -32 -10
-23 3 -20 -6 -76 248 -42 191 -63 271 -123 475 -114 385 -203 697 -256 890
-55 204 -137 452 -224 675 -62 158 -83 233 -92 316 -9 91 6 126 76 184 84 70
89 75 98 106 4 16 4 40 -1 53 -8 24 -10 24 -101 17 -328 -26 -687 -25 -1187 4
-96 5 -179 10 -183 10 -4 0 -10 -7 -13 -15z"/>
<path d="M10797 23287 c-14 -36 15 -89 97 -176 49 -53 96 -114 112 -148 34
-69 32 79 21 -1438 -7 -833 -6 -1176 5 -1500 7 -231 13 -505 13 -610 0 -223 0
-222 -107 -346 -95 -110 -118 -146 -118 -185 0 -19 3 -34 8 -34 4 -1 303 -2
665 -3 611 -2 658 -1 663 15 8 27 -23 77 -91 148 -34 36 -79 92 -100 124 -76
119 -70 -46 -72 1891 0 957 3 1777 7 1822 5 48 18 99 30 125 13 25 73 93 147
164 90 87 124 126 120 138 -8 20 -48 20 -361 5 -172 -9 -313 -9 -574 0 -190 6
-371 14 -402 18 -46 4 -58 3 -63 -10z"/>
<path d="M32206 23275 c-12 -43 -4 -55 77 -113 107 -78 186 -155 223 -217 l29
-50 -1 -1760 c-2 -1971 2 -1857 -71 -1964 -21 -31 -80 -96 -131 -145 -63 -62
-97 -104 -108 -133 -9 -24 -14 -46 -11 -49 3 -3 153 0 334 6 209 8 466 11 710
7 380 -7 382 -7 397 14 8 12 12 29 8 39 -4 10 -47 62 -97 115 -110 118 -140
162 -155 223 -8 30 -14 177 -16 397 -2 193 -5 441 -7 553 l-2 202 200 1 c110
0 243 4 295 8 52 4 102 4 111 0 19 -9 140 -188 227 -334 32 -55 101 -167 152
-250 52 -82 142 -232 201 -331 217 -367 213 -355 164 -496 -19 -56 -35 -116
-35 -135 0 -33 0 -33 48 -33 26 0 130 7 232 16 143 12 288 15 640 12 l455 -3
3 31 c4 37 -5 47 -121 141 -150 123 -348 392 -545 743 -61 107 -139 240 -174
294 -123 194 -177 288 -202 354 -42 109 -38 116 74 172 110 55 196 123 349
280 208 212 331 466 386 799 54 321 -43 726 -239 997 -109 151 -262 299 -403
390 -161 103 -475 203 -723 230 -36 4 -561 7 -1167 8 -1094 1 -1102 1 -1107
-19z m1689 -805 c487 -9 519 -12 630 -61 102 -45 245 -168 315 -270 68 -98 85
-163 84 -319 -1 -220 -43 -334 -169 -464 -37 -38 -87 -75 -132 -99 -127 -66
-154 -69 -742 -74 l-524 -5 7 34 c18 82 25 234 26 498 0 157 3 397 7 533 6
221 8 247 22 241 9 -4 223 -10 476 -14z"/>
<path d="M31528 17829 c-119 -17 -200 -86 -271 -232 -25 -51 -50 -111 -57
-135 -6 -23 -22 -64 -36 -90 -13 -25 -32 -71 -40 -102 -9 -30 -27 -78 -40
-107 -13 -28 -31 -82 -40 -119 -8 -37 -25 -85 -36 -108 -43 -82 -48 -94 -48
-112 0 -9 -11 -40 -24 -68 -57 -120 -96 -209 -96 -219 0 -5 -9 -28 -19 -51
-11 -23 -37 -79 -59 -126 -22 -47 -43 -98 -46 -114 -4 -16 -18 -42 -31 -58
-13 -15 -33 -54 -45 -85 -12 -32 -25 -60 -30 -63 -4 -3 -66 -120 -138 -260
-169 -332 -206 -404 -230 -437 -10 -16 -45 -77 -78 -138 -102 -191 -138 -252
-202 -340 -16 -22 -36 -53 -45 -70 -8 -16 -26 -41 -40 -53 -14 -13 -31 -38
-38 -55 -7 -18 -25 -45 -40 -62 -15 -16 -35 -46 -43 -65 -8 -19 -28 -48 -44
-65 -16 -16 -45 -55 -65 -85 -20 -30 -47 -68 -61 -84 -14 -16 -28 -38 -32 -50
-4 -11 -26 -43 -50 -71 -24 -27 -51 -64 -59 -82 -9 -18 -29 -47 -45 -65 -16
-18 -37 -47 -45 -64 -8 -18 -27 -43 -43 -56 -43 -37 -180 -192 -195 -220 -7
-14 -75 -91 -151 -171 -76 -80 -153 -167 -171 -194 -34 -49 -613 -633 -638
-643 -12 -4 -72 -56 -217 -187 -26 -24 -51 -43 -56 -43 -5 0 -44 -28 -86 -62
-43 -35 -114 -90 -158 -123 -153 -113 -185 -139 -225 -177 -22 -21 -45 -38
-52 -38 -6 0 -42 -26 -80 -59 -37 -32 -77 -61 -88 -65 -11 -3 -47 -31 -80 -61
-33 -30 -67 -55 -75 -55 -8 0 -35 -18 -59 -40 -25 -22 -50 -40 -56 -40 -7 0
-38 -19 -69 -42 -57 -44 -129 -92 -175 -117 -14 -7 -45 -29 -68 -47 -23 -19
-48 -34 -57 -34 -8 0 -34 -18 -58 -40 -24 -22 -50 -40 -59 -40 -9 0 -27 -8
-40 -18 -13 -10 -51 -31 -84 -47 -33 -16 -80 -43 -105 -60 -25 -16 -128 -72
-230 -123 -102 -51 -192 -97 -200 -102 -8 -4 -62 -31 -120 -60 -58 -28 -112
-55 -120 -60 -24 -15 -130 -60 -140 -60 -5 0 -57 -23 -114 -51 -58 -27 -117
-52 -132 -55 -15 -3 -65 -23 -111 -44 -46 -22 -92 -40 -102 -40 -9 0 -48 -15
-87 -34 -38 -19 -82 -38 -99 -41 -29 -7 -90 -32 -148 -61 -16 -8 -34 -14 -41
-14 -12 0 -255 -74 -331 -101 -51 -18 -207 -69 -270 -88 -33 -11 -109 -31
-170 -45 -60 -15 -123 -30 -140 -35 -55 -17 -199 -50 -265 -61 -36 -6 -85 -17
-110 -25 -25 -7 -65 -17 -90 -20 -25 -4 -52 -11 -60 -15 -8 -4 -44 -11 -80
-15 -76 -8 -143 -21 -330 -61 -36 -7 -92 -16 -125 -19 -33 -4 -91 -12 -130
-20 -218 -44 -538 -83 -935 -112 -348 -26 -1212 -26 -1480 0 -357 33 -485 48
-695 77 -33 4 -85 11 -116 14 -30 3 -66 9 -80 14 -13 5 -67 13 -119 17 -52 4
-113 11 -135 17 -22 5 -87 16 -145 23 -58 8 -114 19 -125 24 -11 6 -90 24
-175 41 -85 17 -168 35 -185 40 -16 5 -129 34 -250 65 -301 75 -365 93 -800
230 -155 48 -175 55 -288 99 -37 14 -75 26 -85 26 -9 0 -31 9 -48 19 -17 11
-85 41 -150 67 -66 26 -164 68 -220 94 -55 26 -118 53 -140 60 -21 7 -68 27
-104 45 -36 19 -231 117 -435 218 -409 204 -416 208 -632 331 -84 47 -155 86
-158 86 -3 0 -32 18 -64 40 -32 22 -61 40 -64 40 -10 0 -249 165 -312 215 -22
18 -58 44 -81 58 -22 14 -48 32 -56 41 -9 8 -36 28 -61 43 -57 35 -146 101
-237 176 -39 31 -75 57 -79 57 -5 0 -39 27 -75 60 -37 33 -85 72 -109 87 -23
15 -68 51 -100 80 -31 29 -79 67 -105 84 -26 18 -101 84 -167 148 -194 189
-317 301 -370 341 -56 42 -183 171 -235 240 -19 25 -80 95 -136 156 -56 61
-109 124 -119 140 -122 196 -422 311 -741 284 -275 -23 -276 -24 -241 -66 13
-16 69 -97 124 -179 201 -301 615 -760 988 -1094 88 -79 178 -160 200 -180
114 -105 385 -339 495 -427 183 -147 570 -437 680 -509 576 -377 970 -605
1518 -879 407 -203 1069 -469 1472 -592 99 -30 282 -83 325 -94 17 -4 138 -37
270 -73 561 -153 872 -222 1285 -287 36 -6 121 -17 190 -25 69 -8 235 -28 370
-44 496 -61 813 -81 1258 -81 465 0 721 15 1282 76 471 50 816 106 1210 197
810 187 1180 288 1444 391 88 35 242 94 341 131 326 121 458 176 750 315 275
131 649 328 895 475 58 34 155 91 215 126 271 157 527 334 974 674 54 41 352
284 464 378 196 164 512 463 637 602 29 33 90 98 135 145 128 134 560 656 788
953 43 56 127 163 187 237 60 75 148 201 198 285 78 131 123 199 261 390 59
82 308 492 340 560 65 138 135 272 211 405 42 74 127 236 188 360 62 124 124
248 139 275 48 87 108 222 196 440 47 116 111 271 142 345 117 279 146 363
152 433 6 63 4 72 -31 142 -58 118 -131 167 -266 178 -30 2 -81 1 -112 -4z"/>
<path d="M8685 17819 c-595 -7 -665 -11 -783 -44 -140 -39 -214 -168 -171
-296 20 -59 82 -132 139 -163 l53 -29 4876 4 c2682 2 5641 4 6576 4 1537 0
2844 13 3060 30 44 4 96 11 115 16 19 5 62 14 94 20 50 9 68 19 112 61 69 65
124 170 131 249 6 58 5 60 -31 94 -20 19 -56 40 -79 47 -34 10 -403 12 -1862
8 -2475 -7 -9132 -6 -10510 1 -616 3 -1390 2 -1720 -2z"/>
<path d="M26485 16920 c-44 -4 -96 -12 -115 -18 -19 -6 -57 -13 -84 -17 -72
-10 -227 -74 -324 -134 -173 -106 -205 -131 -338 -265 -150 -151 -152 -154
-263 -344 -115 -195 -165 -309 -217 -497 -23 -79 -26 -110 -26 -255 -1 -175 9
-237 69 -445 30 -105 126 -312 189 -406 59 -89 308 -330 416 -402 183 -121
410 -200 632 -218 365 -31 748 35 1002 171 98 53 244 154 329 227 72 62 193
204 194 227 1 5 12 23 24 40 45 59 116 191 137 256 11 36 25 74 30 85 5 11 14
40 21 65 6 25 15 50 20 56 12 14 28 141 29 219 0 34 5 66 11 72 9 9 9 20 1 40
-6 15 -13 86 -16 156 -4 75 -12 143 -21 162 -7 19 -17 56 -21 82 -14 95 -99
311 -165 421 -36 59 -163 222 -216 278 -76 79 -227 186 -365 258 -125 65 -321
138 -408 151 -25 3 -76 12 -115 20 -89 17 -306 25 -410 15z m525 -542 c122
-40 170 -64 309 -156 119 -79 154 -116 198 -212 78 -170 118 -277 140 -375 23
-99 25 -125 20 -265 -4 -161 -14 -211 -64 -340 -40 -104 -59 -135 -128 -214
-98 -112 -224 -208 -353 -267 -200 -93 -413 -120 -612 -79 -244 50 -495 177
-657 332 -115 109 -144 169 -162 332 -6 54 -17 108 -23 119 -6 13 -11 72 -11
147 0 109 3 130 22 168 12 24 28 74 36 110 18 90 30 122 86 224 82 147 167
272 201 294 38 25 215 121 295 160 55 27 106 36 333 53 166 13 258 6 370 -31z"/>
<path d="M8853 16800 c-612 -6 -562 3 -620 -109 -26 -49 -33 -75 -33 -119 0
-106 84 -242 163 -263 31 -8 258 -10 832 -8 736 4 1890 4 7430 4 1188 0 2417
-2 2730 -4 314 -2 719 1 901 7 328 11 332 12 400 39 72 30 144 92 198 170 l28
42 -18 46 c-22 54 -94 139 -135 160 -25 14 -569 16 -4531 20 -2477 2 -4980 9
-5563 14 -583 6 -1103 9 -1155 8 -52 -1 -334 -4 -627 -7z"/>
<path d="M18274 15810 c-3 -3 -2162 -5 -4797 -5 l-4792 0 -42 -23 c-54 -28
-97 -101 -112 -187 -25 -140 41 -249 166 -276 47 -10 1011 -13 4978 -12 2706
1 4965 5 5020 8 118 9 150 22 221 97 74 77 84 96 84 153 0 64 -31 130 -92 193
l-47 49 -128 7 c-137 8 -451 5 -459 -4z"/>
<path d="M10410 14819 c-515 -7 -575 -13 -652 -64 -61 -40 -83 -93 -83 -201 0
-83 2 -93 27 -126 38 -50 110 -95 176 -110 72 -17 631 -16 847 0 320 25 662
33 920 22 138 -6 257 -14 265 -17 31 -11 5124 -2 5168 9 83 21 196 144 213
232 14 79 -1 127 -60 189 -38 40 -57 52 -97 60 -55 11 -5934 16 -6724 6z"/>
<path d="M21990 14761 c-104 -7 -122 -14 -164 -63 -72 -84 -80 -152 -29 -251
29 -59 41 -70 103 -100 45 -21 46 -21 1195 -30 633 -4 1286 -6 1452 -4 l302 4
50 32 c35 23 58 47 77 84 24 46 28 63 28 149 1 119 -4 125 -124 158 -84 22
-92 22 -550 19 -256 -2 -865 -1 -1355 3 -489 3 -933 3 -985 -1z"/>
<path d="M24926 13823 c-8 -8 -3419 -26 -4406 -24 l-515 1 -40 -22 c-43 -25
-72 -73 -100 -166 -15 -50 -15 -58 1 -105 11 -33 33 -67 63 -97 l47 -47 999
-7 c1416 -9 3735 -7 3896 4 167 11 227 31 293 98 54 54 106 154 106 204 0 18
-7 44 -16 56 -21 31 -86 70 -152 93 -55 19 -162 26 -176 12z"/>
<path d="M16740 8425 c-8 -10 -14 -77 -18 -210 -3 -108 -8 -198 -13 -200 -4
-3 -18 12 -30 32 -13 21 -51 67 -84 103 -34 36 -87 98 -119 138 -68 86 -94
105 -149 106 -68 2 -69 -7 -63 -309 6 -270 19 -420 39 -443 13 -16 67 -9 79
11 4 6 8 49 8 95 0 92 19 324 27 332 10 9 94 -95 200 -248 59 -84 122 -166
140 -183 37 -32 83 -38 103 -14 29 35 33 716 4 762 -8 12 -31 27 -51 32 -50
14 -58 14 -73 -4z"/>
<path d="M13792 8043 c2 -210 6 -385 11 -389 4 -4 39 -8 77 -8 l70 -1 3 115
c3 63 9 128 16 143 10 26 14 28 49 23 20 -4 65 -7 99 -9 77 -3 91 9 100 82 7
63 3 67 -81 76 -34 3 -84 11 -113 16 -48 9 -53 13 -58 43 -4 17 -5 50 -3 71 3
37 5 40 43 48 22 4 98 13 170 20 123 11 130 13 142 37 7 14 13 46 13 73 l0 47
-271 -2 -270 -3 3 -382z"/>
<path d="M17654 8422 c-241 -2 -242 -2 -248 -25 -4 -12 -9 -139 -11 -282 -3
-143 -7 -310 -9 -372 l-4 -112 91 6 c73 4 333 -9 390 -20 16 -3 20 51 12 142
l-7 74 -66 -7 c-177 -19 -245 -24 -258 -19 -11 4 -13 19 -8 72 4 36 10 70 14
75 5 4 68 15 142 22 73 8 142 18 154 23 20 9 41 67 29 79 -2 3 -65 4 -138 3
-74 -1 -146 1 -160 5 -27 6 -27 6 -27 106 l0 100 143 -5 c78 -3 151 -8 163
-12 19 -6 22 -1 33 70 7 42 11 77 9 78 -1 1 -112 1 -244 -1z"/>
<path d="M25557 8418 c-14 -11 -17 -36 -19 -153 l-3 -140 -155 0 -155 0 0 117
c0 141 -3 146 -96 154 l-64 6 3 -383 c2 -211 6 -386 8 -388 2 -2 30 0 61 5
l58 9 6 135 c4 74 7 145 8 158 1 22 2 22 164 22 119 0 168 -4 181 -13 16 -12
17 -24 11 -120 -6 -91 -10 -109 -26 -118 -12 -6 -19 -21 -19 -39 0 -32 14 -37
110 -43 42 -2 45 0 51 28 9 39 11 668 3 729 l-7 46 -51 0 c-29 0 -60 -6 -69
-12z"/>
<path d="M15282 8408 c-16 -16 -16 -144 0 -154 6 -4 53 -10 102 -13 l91 -6 5
-282 c4 -184 9 -286 16 -293 6 -6 40 -12 75 -13 l64 -2 6 292 c3 161 7 295 10
297 2 2 46 -3 96 -11 120 -20 127 -15 121 77 -9 118 12 110 -288 110 -142 0
-264 2 -272 5 -7 3 -19 0 -26 -7z"/>
<path d="M27291 8406 c-8 -10 -8 -60 1 -195 8 -139 8 -185 -1 -194 -8 -8 -34
13 -109 93 -53 57 -123 136 -154 176 -68 87 -93 105 -152 111 -69 8 -69 8 -70
-362 -1 -373 0 -375 69 -375 54 0 52 -7 59 190 6 163 14 230 28 230 24 0 109
-88 199 -207 115 -152 156 -194 210 -218 71 -33 69 -50 63 367 -3 205 -7 379
-10 386 -5 17 -118 16 -133 -2z"/>
<path d="M28158 8407 c-57 -18 -152 -92 -212 -166 -77 -95 -88 -122 -90 -210
-1 -68 3 -82 32 -133 90 -161 311 -291 440 -258 56 14 173 90 202 130 53 74
81 257 46 293 -29 29 -246 33 -298 6 -36 -19 -32 -129 5 -129 8 0 22 9 32 20
36 40 65 13 65 -60 0 -82 -47 -140 -115 -140 -40 0 -147 54 -181 91 -38 42
-54 86 -54 154 0 103 60 228 128 268 31 18 32 18 89 -9 65 -32 184 -45 222
-25 36 20 27 59 -26 110 -69 67 -184 90 -285 58z"/>
<path d="M14714 8099 c4 -173 9 -352 12 -398 l6 -84 51 6 c28 4 57 13 65 21
11 11 15 84 19 378 l6 365 -49 7 c-27 4 -64 10 -82 13 l-34 6 6 -314z"/>
<path d="M18583 8400 c-57 -12 -90 -31 -144 -83 -55 -54 -81 -105 -87 -172 -4
-49 -3 -52 38 -89 46 -42 118 -77 248 -121 l82 -28 0 -38 c0 -43 -33 -89 -65
-91 -11 -1 -66 13 -123 31 -57 18 -117 31 -135 29 -31 -3 -32 -4 -31 -50 0
-62 36 -107 114 -147 146 -73 223 -53 346 91 84 98 101 153 64 213 -23 36
-133 120 -200 152 -25 11 -71 33 -102 48 -67 31 -74 54 -32 104 22 27 32 31
75 31 35 0 60 -7 87 -24 50 -33 119 -53 134 -38 21 21 -1 85 -47 128 -58 56
-126 73 -222 54z"/>
<path d="M23107 8396 c-91 -25 -240 -153 -289 -246 -19 -37 -23 -60 -23 -135
0 -86 2 -94 35 -149 70 -116 194 -214 299 -237 65 -14 149 -1 227 35 71 33
162 124 200 201 26 54 29 70 29 160 0 91 -3 105 -29 157 -37 74 -134 174 -194
201 -59 26 -186 33 -255 13z m191 -177 c93 -45 128 -167 82 -289 -27 -72 -63
-112 -128 -140 -59 -27 -108 -20 -165 24 -49 37 -102 112 -116 163 -24 86 26
196 109 240 58 31 156 32 218 2z"/>
<path d="M23972 8329 l3 -84 113 -3 112 -3 1 -132 c1 -73 4 -199 8 -281 l6
-149 54 -19 c30 -10 56 -16 59 -14 2 3 3 127 3 278 -1 158 3 279 8 288 7 10
43 18 118 25 l108 10 11 52 c6 28 9 63 7 77 l-5 26 -243 0 c-133 0 -270 3
-304 6 l-62 7 3 -84z"/>
<path d="M19555 8388 c-16 -6 -63 -35 -103 -65 -79 -58 -111 -108 -112 -172 0
-74 93 -148 259 -206 58 -19 111 -41 118 -47 21 -17 15 -63 -11 -91 -48 -52
-101 -49 -228 12 -97 47 -121 50 -142 19 -38 -53 -6 -113 88 -166 94 -54 117
-62 181 -62 72 0 134 28 202 92 99 94 124 159 88 228 -22 42 -102 99 -240 171
-66 34 -125 68 -131 75 -20 24 -5 60 32 78 49 23 65 21 162 -21 121 -52 195
-49 177 7 -10 32 -73 99 -124 132 -39 24 -54 28 -115 27 -39 0 -84 -5 -101
-11z"/>
<path d="M21175 8388 c-47 -17 -116 -71 -191 -150 -84 -88 -103 -127 -111
-218 -5 -62 -3 -74 22 -121 41 -78 102 -156 165 -207 77 -63 122 -82 200 -82
86 0 153 32 231 109 59 59 73 93 43 105 -28 11 -167 6 -214 -7 -25 -7 -52 -12
-60 -11 -8 1 -26 2 -40 3 -37 2 -124 98 -140 155 -28 102 10 188 106 236 66
34 155 33 244 -3 35 -14 67 -24 72 -21 15 9 8 74 -12 113 -10 21 -38 54 -62
72 -40 32 -46 34 -133 36 -49 1 -103 -3 -120 -9z"/>
<path d="M26154 8363 c14 -63 26 -292 26 -500 l0 -223 55 0 c45 0 56 4 66 21
8 15 12 132 13 373 l1 351 -83 3 -84 3 6 -28z"/>
<path d="M21986 8363 c5 -10 9 -173 9 -363 0 -190 2 -350 3 -355 1 -7 51 -11
135 -12 76 -1 165 -8 211 -17 44 -9 82 -14 84 -11 6 6 16 194 11 197 -2 0 -71
4 -154 7 l-150 6 -5 280 -5 280 -74 3 c-68 3 -73 2 -65 -15z"/>
</g>
</svg>
